<svg width="26" height="26" viewBox="0 0 26 26" fill="none" xmlns="http://www.w3.org/2000/svg">
<path d="M13.1412 6.10884C9.55425 6.10884 6.6959 9.02325 6.6959 12.5542C6.6959 16.1411 9.55425 18.9995 13.1412 18.9995C16.6721 18.9995 19.5865 16.1411 19.5865 12.5542C19.5865 9.02325 16.6721 6.10884 13.1412 6.10884ZM13.1412 16.7576C10.8433 16.7576 8.93774 14.9081 8.93774 12.5542C8.93774 10.2563 10.7873 8.40674 13.1412 8.40674C15.4391 8.40674 17.2886 10.2563 17.2886 12.5542C17.2886 14.9081 15.4391 16.7576 13.1412 16.7576ZM21.324 5.88466C21.324 5.04397 20.6514 4.37141 19.8107 4.37141C18.97 4.37141 18.2975 5.04397 18.2975 5.88466C18.2975 6.72535 18.97 7.39791 19.8107 7.39791C20.6514 7.39791 21.324 6.72535 21.324 5.88466ZM25.5835 7.39791C25.4714 5.38024 25.023 3.58677 23.5658 2.12956C22.1086 0.672363 20.3151 0.223994 18.2975 0.111901C16.2237 -0.000191063 10.0026 -0.000191063 7.92891 0.111901C5.91125 0.223994 4.17382 0.672363 2.66057 2.12956C1.20337 3.58677 0.755 5.38024 0.642907 7.39791C0.530815 9.47162 0.530815 15.6927 0.642907 17.7665C0.755 19.7841 1.20337 21.5215 2.66057 23.0348C4.17382 24.492 5.91125 24.9404 7.92891 25.0525C10.0026 25.1646 16.2237 25.1646 18.2975 25.0525C20.3151 24.9404 22.1086 24.492 23.5658 23.0348C25.023 21.5215 25.4714 19.7841 25.5835 17.7665C25.6956 15.6927 25.6956 9.47162 25.5835 7.39791ZM22.8932 19.9523C22.5009 21.0732 21.6042 21.9139 20.5393 22.3622C18.8579 23.0348 14.9347 22.8667 13.1412 22.8667C11.2917 22.8667 7.36845 23.0348 5.74311 22.3622C4.62219 21.9139 3.78149 21.0732 3.33312 19.9523C2.66057 18.3269 2.82871 14.4037 2.82871 12.5542C2.82871 10.7607 2.66057 6.83745 3.33312 5.15606C3.78149 4.09118 4.62219 3.25049 5.74311 2.80212C7.36845 2.12956 11.2917 2.2977 13.1412 2.2977C14.9347 2.2977 18.8579 2.12956 20.5393 2.80212C21.6042 3.19444 22.4449 4.09118 22.8932 5.15606C23.5658 6.83745 23.3977 10.7607 23.3977 12.5542C23.3977 14.4037 23.5658 18.3269 22.8932 19.9523Z" fill="#A66606"/>
</svg>
