<svg width="26" height="26" viewBox="0 0 26 26" fill="none" xmlns="http://www.w3.org/2000/svg">
<path d="M25.11 12.232C25.11 18.987 19.5913 24.4632 12.7822 24.4632C10.6214 24.4632 8.59162 23.9105 6.82466 22.9426L0 25.11L2.22467 18.5457C1.10292 16.7034 0.456888 14.5402 0.456888 12.2312C0.457707 5.4761 5.97475 0 12.7839 0C19.5921 0.00163759 25.11 5.47692 25.11 12.232ZM12.7814 1.95037C7.06702 1.95037 2.41872 6.56347 2.41872 12.2344C2.41872 14.4845 3.15236 16.5675 4.39284 18.2624L3.09914 22.0805L7.08012 20.8154C8.71772 21.8897 10.6771 22.5152 12.7814 22.5152C18.4958 22.5152 23.1457 17.903 23.1457 12.232C23.1473 6.56347 18.4966 1.95037 12.7814 1.95037ZM19.0075 15.0495C18.9306 14.9258 18.7291 14.8505 18.4278 14.6998C18.1273 14.5492 16.6396 13.8245 16.3636 13.7263C16.0852 13.6256 15.8838 13.5748 15.6824 13.8753C15.4834 14.1758 14.9037 14.8505 14.726 15.0519C14.55 15.2525 14.374 15.2779 14.0718 15.1297C13.7697 14.9774 12.7953 14.663 11.6408 13.642C10.7426 12.8461 10.1359 11.866 9.96065 11.5655C9.78297 11.2658 9.94263 11.1037 10.0925 10.9547C10.2276 10.8196 10.3946 10.6042 10.5461 10.4282C10.6976 10.2538 10.7475 10.1301 10.8482 9.92953C10.9473 9.72893 10.8973 9.55452 10.8228 9.40305C10.7475 9.25239 10.1441 7.77856 9.89105 7.17838C9.63968 6.57902 9.38831 6.6781 9.21145 6.6781C9.03541 6.6781 8.83399 6.65353 8.63256 6.65353C8.43114 6.65353 8.10362 6.7264 7.82769 7.0269C7.55175 7.3274 6.77062 8.05203 6.77062 9.5275C6.77062 11.0046 7.85225 12.4285 8.00373 12.6283C8.15602 12.8273 10.0949 15.9542 13.1662 17.1546C16.2392 18.3541 16.2392 17.9537 16.7927 17.903C17.3478 17.8522 18.5809 17.1783 18.8315 16.4791C19.0837 15.7766 19.0837 15.1747 19.0075 15.0495Z" fill="#0699A6"/>
</svg>
